<svg width="26" height="27" viewBox="0 0 26 27" fill="none" xmlns="http://www.w3.org/2000/svg">
<g id="apple">
<g id="Vector">
<path d="M18.0912 0.612817C18.0368 0.552017 16.0768 0.636817 14.3712 2.48802C12.6656 4.33762 12.928 6.45922 12.9664 6.51362C13.0048 6.56802 15.3984 6.65282 16.9264 4.50082C18.4544 2.34882 18.1456 0.675217 18.0912 0.612817ZM23.3936 19.3856C23.3168 19.232 19.6736 17.4112 20.0128 13.9104C20.352 10.408 22.6928 9.44802 22.7296 9.34402C22.7664 9.24002 21.7744 8.08002 20.7232 7.49282C19.9514 7.07882 19.0971 6.84163 18.2224 6.79842C18.0496 6.79362 17.4496 6.64642 16.216 6.98402C15.4032 7.20642 13.5712 7.92642 13.0672 7.95522C12.5616 7.98402 11.0576 7.12002 9.43998 6.89122C8.40478 6.69122 7.30718 7.10082 6.52158 7.41602C5.73758 7.72962 4.24638 8.62242 3.20318 10.9952C2.15998 13.3664 2.70558 17.1232 3.09598 18.2912C3.48638 19.4576 4.09598 21.3696 5.13278 22.7648C6.05438 24.3392 7.27678 25.432 7.78718 25.8032C8.29758 26.1744 9.73758 26.4208 10.736 25.9104C11.5392 25.4176 12.9888 25.1344 13.5616 25.1552C14.1328 25.176 15.2592 25.4016 16.4128 26.0176C17.3264 26.3328 18.1904 26.2016 19.056 25.8496C19.9216 25.496 21.1744 24.1552 22.6368 21.4368C23.192 20.1728 23.4448 19.4896 23.3936 19.3856Z" fill="black"/>
<path d="M18.0912 0.612817C18.0368 0.552017 16.0768 0.636817 14.3712 2.48802C12.6656 4.33762 12.928 6.45922 12.9664 6.51362C13.0048 6.56802 15.3984 6.65282 16.9264 4.50082C18.4544 2.34882 18.1456 0.675217 18.0912 0.612817ZM23.3936 19.3856C23.3168 19.232 19.6736 17.4112 20.0128 13.9104C20.352 10.408 22.6928 9.44802 22.7296 9.34402C22.7664 9.24002 21.7744 8.08002 20.7232 7.49282C19.9514 7.07882 19.0971 6.84163 18.2224 6.79842C18.0496 6.79362 17.4496 6.64642 16.216 6.98402C15.4032 7.20642 13.5712 7.92642 13.0672 7.95522C12.5616 7.98402 11.0576 7.12002 9.43998 6.89122C8.40478 6.69122 7.30718 7.10082 6.52158 7.41602C5.73758 7.72962 4.24638 8.62242 3.20318 10.9952C2.15998 13.3664 2.70558 17.1232 3.09598 18.2912C3.48638 19.4576 4.09598 21.3696 5.13278 22.7648C6.05438 24.3392 7.27678 25.432 7.78718 25.8032C8.29758 26.1744 9.73758 26.4208 10.736 25.9104C11.5392 25.4176 12.9888 25.1344 13.5616 25.1552C14.1328 25.176 15.2592 25.4016 16.4128 26.0176C17.3264 26.3328 18.1904 26.2016 19.056 25.8496C19.9216 25.496 21.1744 24.1552 22.6368 21.4368C23.192 20.1728 23.4448 19.4896 23.3936 19.3856Z" fill="black"/>
</g>
</g>
</svg>
