<svg width="145" height="28" viewBox="0 0 145 28" fill="none" xmlns="http://www.w3.org/2000/svg">
<g id="numpax">
<path d="M10.544 0C15.0019 0 17.8705 2.69972 17.8705 8.40771V20.1322H12.7148V9.02479C12.7148 6.67218 11.0479 5.12948 8.95463 5.12948C6.82258 5.12948 5.1557 6.71074 5.1557 9.06336V20.1322H0V0.231404H5.00064V2.85399C6.16358 1.07989 8.25687 0 10.544 0Z" fill="#002855"/>
<path d="M29.7679 20.3636C25.31 20.3636 22.4414 17.6639 22.4414 11.9559V0.231404H27.5971V11.3388C27.5971 13.6915 29.264 15.2342 31.3573 15.2342C33.4893 15.2342 35.1562 13.6529 35.1562 11.3003V0.231404H40.3119V20.1322H35.3112V17.5096C34.1483 19.2837 32.055 20.3636 29.7679 20.3636Z" fill="#002855"/>
<path d="M68.6437 0C72.4814 0 75.8927 2.23691 75.8927 8.71625V20.1322H70.737V9.02479C70.737 6.78788 69.1089 5.12948 67.0543 5.12948C64.961 5.12948 63.3329 6.86501 63.3329 8.98623V20.1322H58.1772V8.98623C58.1772 6.86501 56.5104 5.09091 54.4558 5.09091C52.4013 5.09091 50.7344 6.86501 50.7344 8.98623V20.1322H45.5787V0.231404H50.7344V2.77686C52.0137 0.964188 54.0294 0 56.2778 0C59.2626 0 61.3947 1.34986 62.4413 3.74105C63.7981 1.50413 65.9689 0 68.6437 0Z" fill="#002855"/>
<path d="M81.5196 28V0.231404H84.3106V3.62534C85.8612 1.27273 88.1483 0 91.2883 0C95.9788 0 100.165 4.47383 100.165 10.1818C100.165 15.8898 95.9788 20.3636 91.2883 20.3636C88.1483 20.3636 85.6286 18.8209 84.3106 16.6997V28H81.5196ZM90.5905 2.58402C86.559 2.58402 84.3106 5.97796 84.3106 10.1818C84.3106 14.3857 86.559 17.741 90.5905 17.741C94.622 17.741 97.3743 14.3857 97.3743 10.1818C97.3743 5.97796 94.622 2.58402 90.5905 2.58402Z" fill="#002855"/>
<path d="M119.828 0.231404H122.619V20.1322H119.828V16.6997C118.355 18.9752 116.145 20.3636 113.006 20.3636C107.927 20.3636 103.973 15.8898 103.973 10.1818C103.973 4.47383 107.927 0 113.006 0C116.145 0 118.588 1.5427 119.828 3.70248V0.231404ZM113.354 17.7025C117.231 17.7025 119.828 14.3857 119.828 10.1818C119.828 5.97796 117.231 2.69972 113.354 2.69972C109.478 2.69972 106.764 5.97796 106.764 10.1818C106.764 14.3857 109.478 17.7025 113.354 17.7025Z" fill="#002855"/>
<path d="M145 20.1322H141.55L138.1 15.5041C137.247 14.3857 136.433 13.2672 135.58 12.0716H135.541C134.689 13.2672 133.836 14.3471 132.944 15.5041L129.494 20.1322H126.044L133.603 10.0275L126.277 0.231404H129.727L132.634 4.08815C133.642 5.39945 134.611 6.67218 135.541 7.98347H135.58C136.511 6.67218 137.48 5.36088 138.449 4.08815L141.317 0.231404H144.767L137.441 10.0275L145 20.1322Z" fill="#002855"/>
</g>
</svg>
